<?xml version="1.0" encoding="utf-8"?>
<!-- Generator: Adobe Illustrator 22.1.0, SVG Export Plug-In . SVG Version: 6.00 Build 0)  -->
<svg version="1.1" id="图层_1" xmlns="http://www.w3.org/2000/svg" xmlns:xlink="http://www.w3.org/1999/xlink" x="0px" y="0px"
	 viewBox="0 0 155 168.5" style="enable-background:new 0 0 155 168.5;" xml:space="preserve">
<style type="text/css">
	.st0{fill:#E46264;}
	.st1{fill:#DDDDDD;}
</style>
<path class="st0" d="M136.4,100.8H85.4c-1,0-1.8-0.8-1.8-1.8V17.8c0-1,0.8-1.8,1.8-1.8h51.1c1,0,1.8,0.8,1.8,1.8V99
	C138.3,100,137.4,100.8,136.4,100.8z M87.2,97.2h47.4V19.6H87.2V97.2z"/>
<path class="st1" d="M61.7,20.6H13.3c-1,0-1.8-0.8-1.8-1.8c0-1,0.8-1.8,1.8-1.8h48.3c1,0,1.8,0.8,1.8,1.8
	C63.5,19.7,62.7,20.6,61.7,20.6z"/>
<path class="st1" d="M61.7,47.2H13.3c-1,0-1.8-0.8-1.8-1.8c0-1,0.8-1.8,1.8-1.8h48.3c1,0,1.8,0.8,1.8,1.8
	C63.5,46.4,62.7,47.2,61.7,47.2z"/>
<path class="st1" d="M61.7,73.8H13.3c-1,0-1.8-0.8-1.8-1.8s0.8-1.8,1.8-1.8h48.3c1,0,1.8,0.8,1.8,1.8S62.7,73.8,61.7,73.8z"/>
<path class="st1" d="M61.7,100.4H13.3c-1,0-1.8-0.8-1.8-1.8s0.8-1.8,1.8-1.8h48.3c1,0,1.8,0.8,1.8,1.8S62.7,100.4,61.7,100.4z"/>
<path class="st1" d="M139.2,127.1H14.2c-1,0-1.8-0.8-1.8-1.8s0.8-1.8,1.8-1.8h124.9c1,0,1.8,0.8,1.8,1.8S140.2,127.1,139.2,127.1z"
	/>
<path class="st1" d="M139.2,153.7H14.2c-1,0-1.8-0.8-1.8-1.8s0.8-1.8,1.8-1.8h124.9c1,0,1.8,0.8,1.8,1.8S140.2,153.7,139.2,153.7z"
	/>
</svg>
