<?xml version="1.0" encoding="utf-8"?>
<!-- Generator: Adobe Illustrator 22.1.0, SVG Export Plug-In . SVG Version: 6.00 Build 0)  -->
<svg version="1.1" id="图层_1" xmlns="http://www.w3.org/2000/svg" xmlns:xlink="http://www.w3.org/1999/xlink" x="0px" y="0px"
	 viewBox="0 0 284 250" style="enable-background:new 0 0 284 250;" xml:space="preserve">
<style type="text/css">
	.st0{fill:none;stroke:#E46264;stroke-width:3.4;stroke-linecap:round;stroke-linejoin:round;stroke-miterlimit:10;}
	.st1{fill:none;stroke:#DDDDDD;stroke-width:3.4;stroke-linecap:round;stroke-linejoin:round;stroke-miterlimit:10;}
</style>
<g>
	<path class="st0" d="M24.1,37l12.2,12.9c0.8,0.8,1.8,1.2,2.9,1.1l0,0c1.1-0.1,2.1-0.7,2.7-1.6l25.6-37.7"/>
	<path class="st0" d="M46.6,13c-1.6-0.4-3.2-0.7-4.9-0.9c-14.6-1.2-27.4,9.7-28.6,24.3s9.7,27.4,24.3,28.6s27.4-9.7,28.6-24.3
		c0.3-3.5-0.1-6.9-1.1-10.1"/>
	<line class="st1" x1="85.5" y1="28.5" x2="268.5" y2="28.5"/>
	<line class="st1" x1="85.5" y1="50.5" x2="241.5" y2="50.5"/>
</g>
<g>
	<path class="st0" d="M24.1,122l12.2,12.9c0.8,0.8,1.8,1.2,2.9,1.1l0,0c1.1-0.1,2.1-0.7,2.7-1.6l25.6-37.7"/>
	<path class="st0" d="M46.6,98c-1.6-0.4-3.2-0.7-4.9-0.9c-14.6-1.2-27.4,9.7-28.6,24.3s9.7,27.4,24.3,28.6s27.4-9.7,28.6-24.3
		c0.3-3.5-0.1-6.9-1.1-10.1"/>
	<line class="st1" x1="85.5" y1="113.5" x2="268.5" y2="113.5"/>
	<line class="st1" x1="85.5" y1="135.5" x2="241.5" y2="135.5"/>
</g>
<g>
	<path class="st0" d="M24.1,207l12.2,12.9c0.8,0.8,1.8,1.2,2.9,1.1l0,0c1.1-0.1,2.1-0.7,2.7-1.6l25.6-37.7"/>
	<path class="st0" d="M46.6,183c-1.6-0.4-3.2-0.7-4.9-0.9c-14.6-1.2-27.4,9.7-28.6,24.3s9.7,27.4,24.3,28.6s27.4-9.7,28.6-24.3
		c0.3-3.5-0.1-6.9-1.1-10.1"/>
	<line class="st1" x1="85.5" y1="198.5" x2="268.5" y2="198.5"/>
	<line class="st1" x1="85.5" y1="220.5" x2="241.5" y2="220.5"/>
</g>
</svg>
