<?xml version="1.0" encoding="utf-8"?>
<!-- Generator: Adobe Illustrator 22.1.0, SVG Export Plug-In . SVG Version: 6.00 Build 0)  -->
<svg version="1.1" id="图层_1" xmlns="http://www.w3.org/2000/svg" xmlns:xlink="http://www.w3.org/1999/xlink" x="0px" y="0px"
	 viewBox="0 0 160 92" style="enable-background:new 0 0 160 92;" xml:space="preserve">
<style type="text/css">
	.st0{fill:#DDDDDD;}
	.st1{fill:none;stroke:#DDDDDD;stroke-width:3;stroke-linecap:round;stroke-linejoin:round;}
	.st2{fill:#E46264;}
</style>
<path class="st0" d="M143.9,88c-0.4,0-0.8-0.2-1.1-0.5c-0.6-0.6-0.5-1.6,0.1-2.1l9.4-8.4l-8.4-9.4c-0.6-0.6-0.5-1.6,0.1-2.1
	c0.6-0.6,1.6-0.5,2.1,0.1l9.4,10.6c0.6,0.6,0.5,1.6-0.1,2.1l-10.6,9.4C144.6,87.9,144.3,88,143.9,88z"/>
<g>
	<path class="st0" d="M149.9,79c-2.8,0-6.8-0.4-9.9-2.8c-6.3-4.8-11.9-17.5-17.1-30.6c-0.3-0.8,0.1-1.6,0.8-1.9
		c0.8-0.3,1.6,0.1,1.9,0.8c5,12.7,10.5,25,16.1,29.4c3.3,2.5,8.4,2.2,10.3,2.1c0.8-0.1,1.1-0.1,1.5,0.1c0.8,0.3,1.2,1.2,0.8,1.9
		c-0.3,0.7-0.9,1-1.6,0.9c-0.1,0-0.3,0-0.6,0C151.8,78.9,150.9,79,149.9,79z M152.6,78.7L152.6,78.7L152.6,78.7z M152.6,78.7
		C152.6,78.7,152.6,78.7,152.6,78.7C152.6,78.7,152.6,78.7,152.6,78.7z"/>
	<path class="st0" d="M87.8,33.5c-0.2,0-0.4,0-0.5-0.1c-0.8-0.3-1.2-1.2-0.9-1.9c1.3-3.3,1.6-4.2,1.6-4.2c0.7-2,7.3-20.1,16.3-20.3
		c0.1,0,0.1,0,0.2,0c4.3,0,8,3.9,11.3,12c1.7,4.3,3.4,8.7,4.9,12.6c0.3,0.8-0.1,1.6-0.9,1.9c-0.8,0.3-1.6-0.1-1.9-0.9
		c-1.5-3.8-3.2-8.3-4.9-12.5c-2.7-6.7-5.7-10.2-8.6-10.1c-2.7,0.1-6,3.2-9.2,9c-2.6,4.7-4.3,9.4-4.3,9.4c0,0-0.4,1-1.6,4.3
		C89,33.1,88.4,33.5,87.8,33.5z"/>
	<path class="st0" d="M33.5,33.5c-0.5,0-1.1-0.3-1.3-0.8C22.4,14.5,9.7,11.3,9.5,11.2c-0.8-0.2-1.3-1-1.1-1.8c0.2-0.8,1-1.3,1.8-1.1
		c0.6,0.1,14.2,3.6,24.6,23c0.4,0.7,0.1,1.6-0.6,2C34,33.4,33.7,33.5,33.5,33.5z"/>
	<path class="st0" d="M61,83.5c-0.1,0-0.2,0-0.3,0c-7.9-0.3-15.4-12.4-22.4-35.9c-0.2-0.7-0.4-1.3-0.6-1.9l-0.1-0.2
		c-0.3-0.8,0.2-1.6,1-1.9c0.8-0.3,1.6,0.2,1.9,1l0.1,0.2c0.2,0.7,0.4,1.3,0.6,2c6.3,21.2,13.5,33.5,19.7,33.8
		c4.2,0.2,8.6-5.3,12.8-15.9c3.3-8.4,5.9-15,7.9-20.1c0.3-0.8,1.2-1.2,1.9-0.9c0.8,0.3,1.2,1.2,0.9,1.9c-2,5.1-4.6,11.7-7.9,20.1
		C71.6,77.7,66.6,83.5,61,83.5z"/>
	<path class="st1" d="M124.3,45"/>
	<path class="st1" d="M82.8,45"/>
	<path class="st1" d="M119.3,32"/>
	<path class="st1" d="M87.8,32"/>
	<path class="st1" d="M39,45"/>
	<path class="st1" d="M82.8,45"/>
	<path class="st1" d="M87.8,32"/>
	<path class="st1" d="M33.5,32"/>
</g>
<path class="st2" d="M155.6,37.1l-9.4-10.6c-0.6-0.6-1.5-0.7-2.1-0.1c-0.6,0.6-0.7,1.5-0.1,2.1l6.7,7.5H7.5C6.7,36,6,36.7,6,37.5
	S6.7,39,7.5,39h143.7l-8.3,7.4c-0.6,0.6-0.7,1.5-0.1,2.1c0.3,0.3,0.7,0.5,1.1,0.5c0.4,0,0.7-0.1,1-0.4l10.6-9.4
	C156.1,38.6,156.2,37.7,155.6,37.1z"/>
</svg>
