<?xml version="1.0" encoding="utf-8"?>
<!-- Generator: Adobe Illustrator 22.1.0, SVG Export Plug-In . SVG Version: 6.00 Build 0)  -->
<svg version="1.1" id="Layer_1" xmlns="http://www.w3.org/2000/svg" xmlns:xlink="http://www.w3.org/1999/xlink" x="0px" y="0px"
	 viewBox="0 0 54.6 50.6" style="enable-background:new 0 0 54.6 50.6;" xml:space="preserve">
<style type="text/css">
	.st0{fill:#DDDDDD;}
	.st1{fill:#E46264;}
</style>
<g>
	<path class="st0" d="M43.9,20.2c-0.3,0-0.5,0.2-0.5,0.5v26.2h-39V8.1h30.1c0.3,0,0.5-0.2,0.5-0.5c0-0.3-0.2-0.5-0.5-0.5H3.9
		c-0.3,0-0.5,0.2-0.5,0.5v39.8c0,0.3,0.2,0.5,0.5,0.5h40c0.3,0,0.5-0.2,0.5-0.5V20.7C44.4,20.4,44.2,20.2,43.9,20.2z"/>
	<path class="st1" d="M53.2,1.7c-0.2-0.2-0.5-0.2-0.7,0L23.9,30.2l-6.4-6.4c-0.2-0.2-0.5-0.2-0.7,0c-0.2,0.2-0.2,0.5,0,0.7l6.7,6.7
		c0.1,0.1,0.2,0.1,0.4,0.1c0.1,0,0.3,0,0.4-0.1l29-28.9C53.4,2.2,53.4,1.9,53.2,1.7z"/>
</g>
</svg>
