<?xml version="1.0" encoding="utf-8"?>
<!-- Generator: Adobe Illustrator 21.0.0, SVG Export Plug-In . SVG Version: 6.00 Build 0)  -->
<svg version="1.1" id="Layer_1" xmlns="http://www.w3.org/2000/svg" xmlns:xlink="http://www.w3.org/1999/xlink" x="0px" y="0px"
	 viewBox="0 0 150 150" style="enable-background:new 0 0 150 150;" xml:space="preserve">
<style type="text/css">
	.st0{fill:#283641;}
	.st1{fill:#515D65;}
	.st2{fill:#747D84;}
	.st3{fill:#36434D;}
	.st4{fill:#48545D;}
	.st5{fill:#B0B6BB;}
	.st6{fill:#F7941D;}
	.st7{fill:#CF7421;}
	.st8{fill:#FCDD98;}
	.st9{fill:none;}
	.st10{clip-path:url(#SVGID_2_);}
	.st11{fill:#FFFFFF;}
	.st12{fill:#D80027;}
	.st13{fill:#0052B4;}
	.st14{clip-path:url(#SVGID_4_);}
	.st15{fill:#FFDA44;}
	.st16{clip-path:url(#SVGID_6_);}
	.st17{fill:#41479B;}
	.st18{fill:#F5F5F5;}
	.st19{fill:#FF4B55;}
	.st20{clip-path:url(#SVGID_8_);}
	.st21{clip-path:url(#SVGID_10_);}
	.st22{fill:#0072BC;}
	.st23{fill:#00245F;}
	.st24{fill:#009CDC;}
</style>
<g>
	<path class="st0" d="M138.9,105.3H12.5V33c0-5,4-9,9-9h108.4c5,0,9,4,9,9V105.3z"/>
</g>
<g>
	<path class="st1" d="M138.9,105.3H12.5v4.5c0,5,4,9,9,9h108.4c5,0,9-4,9-9V105.3z"/>
</g>
<path class="st2" d="M42.9,105.3v13.5h83.7c5,0,9-4,9-9v-4.5H42.9z"/>
<path class="st3" d="M126.7,24H42.9v81.3h92.8V33C135.7,28.1,131.7,24,126.7,24z"/>
<g>
	<path class="st4" d="M129.9,105.3H12.5V33c0-5,4-9,9-9h99.4c5,0,9,4,9,9V105.3z"/>
</g>
<g>
	<path class="st5" d="M129.9,105.3H12.5v4.5c0,5,4,9,9,9h99.4c5,0,9-4,9-9V105.3z"/>
</g>
<g>
	<path class="st6" d="M71.2,96.3H24.9c-1.9,0-3.4-1.5-3.4-3.4V36.4c0-1.9,1.5-3.4,3.4-3.4h46.3V96.3z"/>
</g>
<g>
	<path class="st7" d="M117.5,96.3H71.2V33h46.3c1.9,0,3.4,1.5,3.4,3.4v56.4C120.8,94.7,119.3,96.3,117.5,96.3z"/>
</g>
<g>
	<path class="st1" d="M92.6,127.9h-9v-9h9V127.9z"/>
</g>
<g>
	<path class="st2" d="M62.1,118.8h21.5v9H62.1V118.8z"/>
</g>
<g>
	<path class="st5" d="M101.7,127.9H45.2c-5,0-9,4-9,9h74.5C110.7,131.9,106.6,127.9,101.7,127.9z"/>
</g>
<g>
	<path class="st2" d="M101.7,127.9h-9c-5,0-9,4-9,9h27.1C110.7,131.9,106.6,127.9,101.7,127.9z"/>
</g>
<g>
	<path class="st8" d="M77.2,24c-3.3,0-6,2.7-6,6v66.2c0-5,4-9,9-9h24.3l11.8-11.8v-51c0-0.2-0.2-0.4-0.4-0.4H77.2z"/>
</g>
<g>
	<path class="st6" d="M116.3,75.5h-9.2c-1.4,0-2.5,1.1-2.5,2.5v9.2L116.3,75.5z"/>
</g>
<path class="st9" d="M142.2,45.5h-13c-1,0-1.9-0.8-1.9-1.9V38c0-1,0.8-1.9,1.9-1.9h13c1,0,1.9,0.8,1.9,1.9v5.6
	C144.1,44.6,143.2,45.5,142.2,45.5z"/>
<g>
	<defs>
		<path id="SVGID_1_" d="M142.2,45.5h-13c-1,0-1.9-0.8-1.9-1.9V38c0-1,0.8-1.9,1.9-1.9h13c1,0,1.9,0.8,1.9,1.9v5.6
			C144.1,44.6,143.2,45.5,142.2,45.5z"/>
	</defs>
	<clipPath id="SVGID_2_">
		<use xlink:href="#SVGID_1_"  style="overflow:visible;"/>
	</clipPath>
	<g class="st10">
		<rect x="130" y="36.1" class="st11" width="14.1" height="9.4"/>
		<polygon class="st12" points="137.9,36.1 136.1,36.1 136.1,39.9 130,39.9 130,41.7 136.1,41.7 136.1,45.5 137.9,45.5 137.9,41.7 
			144.1,41.7 144.1,39.9 137.9,39.9 		"/>
		<g>
			<polygon class="st13" points="140.8,42.4 144.1,44.2 144.1,42.4 			"/>
			<polygon class="st13" points="138.6,42.4 144.1,45.5 144.1,44.6 140.1,42.4 			"/>
			<polygon class="st13" points="142.6,45.5 138.6,43.2 138.6,45.5 			"/>
		</g>
		<polygon class="st11" points="138.6,42.4 144.1,45.5 144.1,44.6 140.1,42.4 		"/>
		<polygon class="st12" points="138.6,42.4 144.1,45.5 144.1,44.6 140.1,42.4 		"/>
		<g>
			<polygon class="st13" points="132.5,42.4 130,43.8 130,42.4 			"/>
			<polygon class="st13" points="135.5,42.8 135.5,45.5 130.7,45.5 			"/>
		</g>
		<polygon class="st12" points="133.9,42.4 130,44.6 130,45.5 130,45.5 135.5,42.4 		"/>
		<g>
			<polygon class="st13" points="133.2,39.1 130,37.3 130,39.1 			"/>
			<polygon class="st13" points="135.5,39.1 130,36.1 130,36.9 133.9,39.1 			"/>
			<polygon class="st13" points="131.4,36.1 135.5,38.3 135.5,36.1 			"/>
		</g>
		<polygon class="st11" points="135.5,39.1 130,36.1 130,36.9 133.9,39.1 		"/>
		<polygon class="st12" points="135.5,39.1 130,36.1 130,36.9 133.9,39.1 		"/>
		<g>
			<polygon class="st13" points="141.6,39.1 144.1,37.8 144.1,39.1 			"/>
			<polygon class="st13" points="138.6,38.8 138.6,36.1 143.4,36.1 			"/>
		</g>
		<polygon class="st12" points="140.1,39.1 144.1,36.9 144.1,36.1 144.1,36.1 138.6,39.1 		"/>
	</g>
</g>
<g>
	<defs>
		<path id="SVGID_3_" d="M142.2,59.1h-13c-1,0-1.9-0.8-1.9-1.9v-5.6c0-1,0.8-1.9,1.9-1.9h13c1,0,1.9,0.8,1.9,1.9v5.6
			C144.1,58.3,143.2,59.1,142.2,59.1z"/>
	</defs>
	<clipPath id="SVGID_4_">
		<use xlink:href="#SVGID_3_"  style="overflow:visible;"/>
	</clipPath>
	<g class="st14">
		<g>
			<path class="st12" d="M144.1,51.8V57c0,1.1-0.9,2.1-2.1,2.1h-10c-1.1,0-2.1-0.9-2.1-2.1v-5.3"/>
			<line class="st12" x1="132" y1="49.7" x2="142" y2="49.7"/>
			<rect x="130" y="49.7" width="14.1" height="3.1"/>
			<rect x="130" y="56" class="st15" width="14.1" height="3.1"/>
		</g>
	</g>
</g>
<g>
	<defs>
		<path id="SVGID_5_" d="M142.2,72.8h-13c-1,0-1.9-0.8-1.9-1.9v-5.6c0-1,0.8-1.9,1.9-1.9h13c1,0,1.9,0.8,1.9,1.9v5.6
			C144.1,71.9,143.2,72.8,142.2,72.8z"/>
	</defs>
	<clipPath id="SVGID_6_">
		<use xlink:href="#SVGID_5_"  style="overflow:visible;"/>
	</clipPath>
	<g class="st16">
		<path class="st17" d="M134.5,72.8H130c-0.1,0-0.2-0.1-0.2-0.2v-8.9c0-0.1,0.1-0.2,0.2-0.2h4.5V72.8z"/>
		<rect x="134.5" y="63.4" class="st18" width="4.8" height="9.4"/>
		<path class="st19" d="M143.8,72.8h-4.5v-9.4h4.5c0.1,0,0.2,0.1,0.2,0.2v8.9C144.1,72.7,144,72.8,143.8,72.8z"/>
	</g>
</g>
<g>
	<defs>
		<path id="SVGID_7_" d="M142.2,86.4h-13c-1,0-1.9-0.8-1.9-1.9v-5.6c0-1,0.8-1.9,1.9-1.9h13c1,0,1.9,0.8,1.9,1.9v5.6
			C144.1,85.6,143.2,86.4,142.2,86.4z"/>
	</defs>
	<clipPath id="SVGID_8_">
		<use xlink:href="#SVGID_7_"  style="overflow:visible;"/>
	</clipPath>
	<g class="st20">
		<g>
			<path class="st18" d="M144.1,80.1h-14.4v-2.9c0-0.1,0.1-0.2,0.2-0.2h13.9c0.1,0,0.2,0.1,0.2,0.2V80.1z"/>
			<path class="st19" d="M143.8,86.4h-13.9c-0.1,0-0.2-0.1-0.2-0.2v-2.9h14.4v2.9C144.1,86.3,144,86.4,143.8,86.4z"/>
			<rect x="129.7" y="80.2" class="st17" width="14.4" height="3.1"/>
		</g>
	</g>
</g>
<g>
	<defs>
		<path id="SVGID_9_" d="M142.2,99.9h-13c-1,0-1.9-0.8-1.9-1.9v-5.6c0-1,0.8-1.9,1.9-1.9h13c1,0,1.9,0.8,1.9,1.9V98
			C144.1,99.1,143.2,99.9,142.2,99.9z"/>
	</defs>
	<clipPath id="SVGID_10_">
		<use xlink:href="#SVGID_9_"  style="overflow:visible;"/>
	</clipPath>
	<g class="st21">
		<g>
			<rect x="130" y="90.5" class="st15" width="14.1" height="9.4"/>
			<rect x="130" y="90.5" class="st22" width="14.1" height="4.7"/>
		</g>
	</g>
</g>
<g>
	<path class="st7" d="M62.3,52.5c0,0.7-0.6,1.3-1.3,1.3H31.7c-0.7,0-1.3-0.6-1.3-1.3c0-0.7,0.6-1.3,1.3-1.3H61
		C61.7,51.2,62.3,51.8,62.3,52.5"/>
	<path class="st7" d="M62.3,46c0,0.7-0.6,1.3-1.3,1.3H39.7c-0.7,0-1.3-0.6-1.3-1.3c0-0.7,0.6-1.3,1.3-1.3H61
		C61.7,44.7,62.3,45.3,62.3,46"/>
	<path class="st7" d="M62.3,59c0,0.7-0.6,1.3-1.3,1.3H31.7c-0.7,0-1.3-0.6-1.3-1.3s0.6-1.3,1.3-1.3H61C61.7,57.7,62.3,58.3,62.3,59"
		/>
	<path class="st7" d="M62.3,65.6c0,0.7-0.6,1.3-1.3,1.3H31.7c-0.7,0-1.3-0.6-1.3-1.3c0-0.7,0.6-1.3,1.3-1.3H61
		C61.7,64.3,62.3,64.8,62.3,65.6"/>
	<path class="st7" d="M62.3,72.1c0,0.7-0.6,1.3-1.3,1.3H31.7c-0.7,0-1.3-0.6-1.3-1.3c0-0.7,0.6-1.3,1.3-1.3H61
		C61.7,70.8,62.3,71.4,62.3,72.1"/>
	<path class="st7" d="M62.3,78.6c0,0.7-0.6,1.3-1.3,1.3H31.7c-0.7,0-1.3-0.6-1.3-1.3c0-0.7,0.6-1.3,1.3-1.3H61
		C61.7,77.3,62.3,77.9,62.3,78.6"/>
	<path class="st7" d="M62.3,85.1c0,0.7-0.6,1.3-1.3,1.3H31.7c-0.7,0-1.3-0.6-1.3-1.3c0-0.7,0.6-1.3,1.3-1.3H61
		C61.7,83.8,62.3,84.4,62.3,85.1"/>
</g>
<g>
	<path class="st7" d="M109.9,41.4c0,0.7-0.6,1.3-1.3,1.3H79.3c-0.7,0-1.3-0.6-1.3-1.3s0.6-1.3,1.3-1.3h29.3
		C109.3,40.1,109.9,40.7,109.9,41.4"/>
	<path class="st7" d="M109.9,34.9c0,0.7-0.6,1.3-1.3,1.3H87.3c-0.7,0-1.3-0.6-1.3-1.3c0-0.7,0.6-1.3,1.3-1.3h21.3
		C109.3,33.6,109.9,34.1,109.9,34.9"/>
	<path class="st7" d="M109.9,47.9c0,0.7-0.6,1.3-1.3,1.3H79.3c-0.7,0-1.3-0.6-1.3-1.3c0-0.7,0.6-1.3,1.3-1.3h29.3
		C109.3,46.6,109.9,47.2,109.9,47.9"/>
	<path class="st7" d="M109.9,54.4c0,0.7-0.6,1.3-1.3,1.3H79.3c-0.7,0-1.3-0.6-1.3-1.3s0.6-1.3,1.3-1.3h29.3
		C109.3,53.1,109.9,53.7,109.9,54.4"/>
	<path class="st7" d="M109.9,61c0,0.7-0.6,1.3-1.3,1.3H79.3c-0.7,0-1.3-0.6-1.3-1.3c0-0.7,0.6-1.3,1.3-1.3h29.3
		C109.3,59.7,109.9,60.2,109.9,61"/>
	<path class="st7" d="M109.9,67.5c0,0.7-0.6,1.3-1.3,1.3H79.3c-0.7,0-1.3-0.6-1.3-1.3s0.6-1.3,1.3-1.3h29.3
		C109.3,66.2,109.9,66.8,109.9,67.5"/>
	<path class="st7" d="M109.9,74c0,0.7-0.6,1.3-1.3,1.3H79.3c-0.7,0-1.3-0.6-1.3-1.3c0-0.7,0.6-1.3,1.3-1.3h29.3
		C109.3,72.7,109.9,73.3,109.9,74"/>
</g>
<g>
	<g>
		<g>
			<g>
				<circle class="st23" cx="24.5" cy="37.6" r="24.5"/>
			</g>
		</g>
	</g>
	<g>
		<g>
			<path class="st24" d="M36.7,35.5c-0.1-2.8-0.3-5.5-0.7-8.2h10.7c-0.7-1.4-1.5-2.8-2.4-4.1h-9c-0.8-3.5-1.8-6.6-3.2-9
				c-2.4-0.8-4.9-1.2-7.6-1.2c2.7,0,5.1,4,6.6,10.2H17.9c1.5-6.2,3.9-10.2,6.6-10.2c-2.6,0-5.2,0.4-7.6,1.2c-1.4,2.4-2.5,5.5-3.2,9
				h-9c-0.9,1.3-1.7,2.6-2.4,4.1H13c-0.4,2.6-0.6,5.4-0.7,8.2H0.2c-0.1,0.7-0.1,1.3-0.1,2c0,0.7,0,1.4,0.1,2h12.2
				c0.1,2.8,0.3,5.5,0.7,8.2H2.3c0.7,1.4,1.5,2.8,2.4,4.1h9c0.8,3.5,1.8,6.6,3.2,9c2.4,0.8,4.9,1.2,7.6,1.2c-2.7,0-5.1-4-6.6-10.2
				h13.2C29.7,58,27.2,62,24.5,62c2.6,0,5.2-0.4,7.6-1.2c1.4-2.4,2.5-5.5,3.2-9h9c0.9-1.3,1.7-2.6,2.4-4.1H36.1
				c0.4-2.6,0.6-5.4,0.7-8.2h12.2c0.1-0.7,0.1-1.3,0.1-2c0-0.7,0-1.4-0.1-2H36.7z M17.1,27.4h14.8c0.4,2.5,0.6,5.3,0.7,8.2H16.4
				C16.5,32.6,16.7,29.9,17.1,27.4z M31.9,47.7H17.1c-0.4-2.5-0.6-5.3-0.7-8.2h16.2C32.6,42.5,32.3,45.2,31.9,47.7z"/>
		</g>
	</g>
</g>
</svg>
